<?xml version="1.0" encoding="utf-8" ?>
<svg baseProfile="full" height="90cm" version="1.1" viewBox="0,0,90,90" width="90cm" xmlns="http://www.w3.org/2000/svg" xmlns:ev="http://www.w3.org/2001/xml-events" xmlns:xlink="http://www.w3.org/1999/xlink"><defs /><rect fill="white" height="90" width="90" x="0" y="0" /><path d="M 0 0 h 10 v 10 h -10 v -10 z M 0 10 h 10 v 10 h -10 v -10 z M 0 20 h 10 v 10 h -10 v -10 z M 0 30 h 10 v 10 h -10 v -10 z M 0 40 h 10 v 10 h -10 v -10 z M 0 50 h 10 v 10 h -10 v -10 z M 0 60 h 10 v 10 h -10 v -10 z M 0 70 h 10 v 10 h -10 v -10 z M 0 80 h 10 v 10 h -10 v -10 z M 10 0 h 10 v 10 h -10 v -10 z M 10 80 h 10 v 10 h -10 v -10 z M 20 0 h 10 v 10 h -10 v -10 z M 20 10 h 10 v 10 h -10 v -10 z M 20 20 h 10 v 10 h -10 v -10 z M 20 40 h 10 v 10 h -10 v -10 z M 20 50 h 10 v 10 h -10 v -10 z M 20 60 h 10 v 10 h -10 v -10 z M 20 80 h 10 v 10 h -10 v -10 z M 30 0 h 10 v 10 h -10 v -10 z M 30 40 h 10 v 10 h -10 v -10 z M 30 60 h 10 v 10 h -10 v -10 z M 30 80 h 10 v 10 h -10 v -10 z M 40 0 h 10 v 10 h -10 v -10 z M 40 20 h 10 v 10 h -10 v -10 z M 40 30 h 10 v 10 h -10 v -10 z M 40 40 h 10 v 10 h -10 v -10 z M 40 60 h 10 v 10 h -10 v -10 z M 40 70 h 10 v 10 h -10 v -10 z M 40 80 h 10 v 10 h -10 v -10 z M 50 40 h 10 v 10 h -10 v -10 z M 50 80 h 10 v 10 h -10 v -10 z M 60 0 h 10 v 10 h -10 v -10 z M 60 20 h 10 v 10 h -10 v -10 z M 60 30 h 10 v 10 h -10 v -10 z M 60 40 h 10 v 10 h -10 v -10 z M 60 60 h 10 v 10 h -10 v -10 z M 60 70 h 10 v 10 h -10 v -10 z M 60 80 h 10 v 10 h -10 v -10 z M 70 0 h 10 v 10 h -10 v -10 z M 80 0 h 10 v 10 h -10 v -10 z M 80 10 h 10 v 10 h -10 v -10 z M 80 20 h 10 v 10 h -10 v -10 z M 80 30 h 10 v 10 h -10 v -10 z M 80 40 h 10 v 10 h -10 v -10 z M 80 50 h 10 v 10 h -10 v -10 z M 80 60 h 10 v 10 h -10 v -10 z M 80 70 h 10 v 10 h -10 v -10 z M 80 80 h 10 v 10 h -10 v -10 z" fill="black" shape-rendering="crispEdges" stroke="none" /></svg>